<?xml version="1.0" encoding="UTF-8" standalone="no"?>
<!DOCTYPE svg PUBLIC "-//W3C//DTD SVG 1.1//EN" "http://www.w3.org/Graphics/SVG/1.1/DTD/svg11.dtd">
<svg width="100%" height="100%" viewBox="0 0 177 124" version="1.1" xmlns="http://www.w3.org/2000/svg" xmlns:xlink="http://www.w3.org/1999/xlink" xml:space="preserve" xmlns:serif="http://www.serif.com/" style="fill-rule:evenodd;clip-rule:evenodd;stroke-linejoin:round;stroke-miterlimit:1.41421;">
    <g transform="matrix(1,0,0,1,-416.768,-236.975)">
        <g>
            <g transform="matrix(1.49632,-0.00172671,0.00169612,1.46982,-623.396,-782.983)">
                <path d="M798.931,769.246C798.931,769.246 794.691,776.961 752.835,776.728C710.984,776.495 706.852,768.033 706.852,768.033L702.887,736.611L721.605,753.486L724.124,715.832L742.566,748.883L753.306,709.758L763.49,749.595L782.395,716.807L784.389,753.928L803.338,737.883L798.931,769.246" style="fill:rgb(255,173,51);"/>
                <path d="M753.463,707.706L753.738,707.748L754.005,707.827L754.258,707.943L754.494,708.093L754.707,708.275L754.894,708.484L755.05,708.718L755.174,708.972L755.262,709.24L764.217,744.268L780.652,715.765L780.805,715.537L780.987,715.331L781.194,715.152L781.423,715.003L781.669,714.886L781.929,714.804L782.197,714.759L782.469,714.75L782.739,714.779L783.003,714.844L783.256,714.945L783.494,715.079L783.711,715.245L783.905,715.439L784.072,715.657L784.208,715.897L784.312,716.152L784.381,716.42L784.414,716.695L786.188,749.728L802.045,736.301L802.264,736.14L802.502,736.01L802.754,735.913L803.018,735.851L803.287,735.826L803.557,735.837L803.822,735.885L804.08,735.969L804.324,736.087L804.55,736.237L804.755,736.416L804.935,736.621L805.086,736.849L805.205,737.096L805.292,737.356L805.344,737.626L805.359,737.901L805.339,738.175L800.933,769.537L800.908,769.654L800.886,769.771L800.879,769.791L800.875,769.812L800.835,769.924L800.798,770.037L800.788,770.056L800.781,770.076L800.727,770.182L800.675,770.288L800.655,770.321L800.612,770.391L800.559,770.472L800.495,770.563L800.425,770.655L800.379,770.713L800.335,770.766L800.288,770.822L800.238,770.88L800.184,770.939L800.128,771L800.069,771.062L800.007,771.125L799.941,771.191L799.871,771.258L799.798,771.326L799.722,771.395L799.641,771.466L799.558,771.538L799.47,771.612L799.378,771.686L799.283,771.762L799.183,771.838L799.08,771.916L798.972,771.995L798.859,772.075L798.743,772.156L798.621,772.238L798.496,772.32L798.365,772.404L798.23,772.488L798.091,772.574L797.946,772.66L797.796,772.746L797.641,772.834L797.481,772.922L797.316,773.01L797.145,773.1L796.969,773.19L796.787,773.28L796.6,773.371L796.406,773.462L796.207,773.554L796.003,773.646L795.792,773.738L795.575,773.831L795.354,773.923L795.238,773.97L795.122,774.017L795.005,774.064L794.886,774.11L794.766,774.157L794.644,774.204L794.52,774.251L794.395,774.298L794.268,774.345L794.139,774.392L794.009,774.438L793.877,774.485L793.743,774.532L793.607,774.579L793.47,774.626L793.331,774.673L793.19,774.72L793.048,774.767L792.903,774.814L792.757,774.861L792.609,774.907L792.459,774.954L792.308,775.001L792.154,775.047L791.999,775.094L791.841,775.141L791.682,775.187L791.521,775.233L791.358,775.28L791.193,775.326L791.026,775.372L790.858,775.418L790.687,775.464L790.514,775.51L790.339,775.556L790.163,775.602L789.984,775.647L789.803,775.693L789.62,775.738L789.435,775.783L789.248,775.828L789.059,775.873L788.868,775.918L788.675,775.963L788.48,776.007L788.282,776.052L788.083,776.096L787.881,776.14L787.677,776.184L787.471,776.227L787.263,776.271L787.053,776.314L786.84,776.357L786.625,776.4L786.408,776.443L786.189,776.485L785.967,776.528L785.744,776.57L785.517,776.611L785.289,776.653L785.058,776.694L784.825,776.735L784.59,776.776L784.352,776.817L784.112,776.857L783.87,776.897L783.625,776.937L783.378,776.977L783.128,777.016L782.876,777.055L782.622,777.094L782.365,777.132L782.105,777.171L781.844,777.208L781.579,777.246L781.313,777.283L781.043,777.32L780.771,777.357L780.497,777.393L780.22,777.429L779.941,777.464L779.659,777.5L779.374,777.534L779.087,777.569L778.797,777.603L778.505,777.637L778.21,777.67L777.912,777.703L777.612,777.736L777.309,777.768L777.004,777.8L776.695,777.832L776.384,777.863L776.071,777.893L775.754,777.924L775.435,777.953L775.113,777.983L774.789,778.012L774.461,778.04L774.131,778.068L773.798,778.096L773.462,778.123L773.124,778.15L772.782,778.176L772.438,778.202L772.091,778.227L771.741,778.252L771.388,778.277L771.032,778.301L770.673,778.324L770.311,778.347L769.947,778.369L769.579,778.391L769.209,778.412L768.836,778.433L768.459,778.454L768.08,778.473L767.697,778.493L767.312,778.511L766.924,778.529L766.532,778.547L766.138,778.564L765.74,778.58L765.339,778.596L764.936,778.612L764.529,778.626L764.119,778.64L763.706,778.654L763.29,778.667L762.87,778.679L762.448,778.691L762.022,778.702L761.593,778.712L761.161,778.722L760.726,778.731L760.287,778.74L759.846,778.748L759.401,778.755L758.952,778.762L758.501,778.768L758.046,778.773L757.588,778.778L757.127,778.782L756.662,778.785L756.194,778.788L755.723,778.79L755.248,778.791L754.77,778.791L754.288,778.791L753.804,778.79L753.315,778.788L752.824,778.786L752.332,778.783L751.843,778.779L751.358,778.774L750.877,778.769L750.398,778.763L749.924,778.756L749.452,778.749L748.984,778.74L748.519,778.731L748.058,778.722L747.599,778.711L747.145,778.7L746.693,778.688L746.245,778.676L745.8,778.663L745.358,778.649L744.919,778.635L744.484,778.62L744.052,778.604L743.623,778.587L743.197,778.57L742.774,778.553L742.355,778.534L741.939,778.515L741.526,778.496L741.116,778.476L740.709,778.455L740.305,778.433L739.905,778.411L739.507,778.389L739.112,778.366L738.721,778.342L738.333,778.318L737.947,778.293L737.565,778.267L737.185,778.241L736.809,778.215L736.436,778.188L736.065,778.16L735.698,778.132L735.333,778.103L734.972,778.074L734.613,778.045L734.257,778.014L733.905,777.984L733.555,777.952L733.208,777.921L732.863,777.889L732.522,777.856L732.183,777.823L731.848,777.789L731.515,777.755L731.185,777.721L730.857,777.686L730.533,777.65L730.211,777.614L729.892,777.578L729.576,777.541L729.262,777.504L728.951,777.467L728.643,777.429L728.338,777.39L728.035,777.352L727.735,777.312L727.437,777.273L727.142,777.233L726.85,777.193L726.561,777.152L726.274,777.111L725.989,777.07L725.707,777.028L725.428,776.986L725.151,776.943L724.877,776.9L724.605,776.857L724.336,776.814L724.07,776.77L723.806,776.726L723.544,776.682L723.285,776.637L723.028,776.592L722.774,776.547L722.522,776.501L722.272,776.455L722.025,776.409L721.781,776.363L721.539,776.316L721.299,776.269L721.061,776.222L720.826,776.175L720.593,776.127L720.363,776.079L720.134,776.031L719.908,775.983L719.685,775.934L719.463,775.886L719.244,775.837L719.027,775.787L718.813,775.738L718.6,775.688L718.39,775.639L718.182,775.589L717.976,775.539L717.773,775.488L717.571,775.438L717.372,775.387L717.175,775.336L716.979,775.286L716.786,775.234L716.596,775.183L716.407,775.132L716.22,775.08L716.035,775.029L715.853,774.977L715.672,774.925L715.494,774.873L715.317,774.821L715.143,774.769L714.97,774.717L714.8,774.665L714.631,774.612L714.464,774.56L714.3,774.507L714.137,774.455L713.976,774.402L713.817,774.35L713.66,774.297L713.505,774.244L713.351,774.191L713.2,774.138L713.05,774.085L712.903,774.032L712.757,773.98L712.612,773.927L712.47,773.874L712.329,773.821L712.191,773.768L712.054,773.715L711.918,773.662L711.785,773.609L711.653,773.556L711.523,773.503L711.394,773.45L711.267,773.398L711.142,773.345L711.019,773.292L710.897,773.239L710.777,773.187L710.659,773.134L710.542,773.082L710.426,773.029L710.313,772.977L710.2,772.925L710.09,772.873L709.981,772.821L709.873,772.769L709.768,772.717L709.663,772.665L709.56,772.613L709.459,772.562L709.359,772.511L709.261,772.459L709.163,772.408L709.066,772.356L708.881,772.256L708.7,772.155L708.525,772.054L708.355,771.954L708.19,771.856L708.031,771.757L707.877,771.66L707.728,771.563L707.584,771.468L707.445,771.373L707.311,771.279L707.181,771.186L707.057,771.095L706.936,771.004L706.821,770.914L706.71,770.826L706.603,770.739L706.501,770.653L706.402,770.568L706.308,770.485L706.218,770.403L706.132,770.322L706.049,770.243L705.971,770.165L705.896,770.089L705.825,770.015L705.757,769.942L705.693,769.871L705.632,769.802L705.575,769.734L705.52,769.669L705.469,769.605L705.421,769.544L705.376,769.484L705.334,769.427L705.295,769.371L705.258,769.318L705.221,769.261L705.165,769.174L705.116,769.089L705.078,769.021L705.063,768.991L704.964,768.769L704.891,768.535L704.847,768.295L700.882,736.874L700.866,736.597L700.886,736.321L700.942,736.05L701.034,735.79L701.159,735.544L701.315,735.317L701.5,735.114L701.71,734.938L701.941,734.792L702.19,734.68L702.451,734.602L702.72,734.56L702.991,734.556L703.262,734.589L703.525,734.658L703.777,734.763L704.012,734.901L704.227,735.071L719.867,749.171L722.107,715.692L722.144,715.418L722.216,715.151L722.323,714.896L722.463,714.659L722.632,714.443L722.829,714.251L723.049,714.089L723.288,713.958L723.543,713.861L723.808,713.799L724.079,713.774L724.35,713.787L724.618,713.836L724.876,713.921L725.121,714.042L725.348,714.194L725.553,714.376L725.732,714.584L725.882,714.815L741.926,743.568L751.359,709.204L751.452,708.938L751.58,708.687L751.741,708.456L751.931,708.249L752.147,708.072L752.385,707.926L752.641,707.815L752.909,707.74L753.185,707.704L753.463,707.706ZM744.513,749.437L744.419,749.705L744.29,749.957L744.128,750.189L743.936,750.396L743.718,750.574L743.478,750.719L743.22,750.83L742.95,750.903L742.673,750.938L742.393,750.933L742.117,750.889L741.85,750.807L741.596,750.688L741.36,750.535L741.148,750.349L740.963,750.136L740.808,749.899L725.684,722.795L723.622,753.626L723.583,753.91L723.506,754.185L723.392,754.447L723.244,754.69L723.064,754.91L722.856,755.103L722.623,755.264L722.371,755.391L722.104,755.481L721.828,755.532L721.547,755.544L721.267,755.515L720.993,755.448L720.732,755.343L720.487,755.202L720.264,755.027L705.578,741.787L708.786,767.211L708.806,767.231L708.845,767.269L708.886,767.309L708.932,767.351L708.981,767.396L709.035,767.444L709.093,767.493L709.154,767.545L709.22,767.599L709.291,767.656L709.366,767.714L709.446,767.774L709.531,767.836L709.62,767.901L709.714,767.967L709.814,768.034L709.919,768.104L710.029,768.175L710.144,768.248L710.265,768.323L710.391,768.399L710.524,768.476L710.662,768.555L710.805,768.635L710.958,768.718L711.033,768.758L711.111,768.8L711.192,768.841L711.274,768.884L711.357,768.926L711.442,768.969L711.529,769.012L711.617,769.055L711.707,769.098L711.798,769.142L711.892,769.186L711.987,769.23L712.083,769.275L712.181,769.319L712.281,769.364L712.383,769.409L712.486,769.454L712.591,769.5L712.698,769.546L712.807,769.591L712.917,769.637L713.029,769.683L713.143,769.73L713.259,769.776L713.377,769.823L713.496,769.869L713.617,769.916L713.74,769.963L713.865,770.01L713.992,770.058L714.121,770.105L714.252,770.152L714.384,770.2L714.519,770.247L714.655,770.295L714.794,770.343L714.934,770.39L715.076,770.438L715.221,770.486L715.367,770.534L715.515,770.582L715.666,770.63L715.818,770.678L715.973,770.726L716.129,770.774L716.288,770.822L716.448,770.87L716.611,770.918L716.776,770.966L716.943,771.013L717.112,771.061L717.283,771.109L717.457,771.157L717.632,771.205L717.81,771.252L717.99,771.3L718.172,771.348L718.357,771.395L718.543,771.442L718.732,771.49L718.923,771.537L719.116,771.584L719.312,771.631L719.51,771.678L719.71,771.724L719.913,771.771L720.117,771.817L720.324,771.864L720.534,771.91L720.746,771.956L720.96,772.002L721.177,772.047L721.396,772.093L721.617,772.138L721.841,772.183L722.067,772.228L722.296,772.273L722.527,772.317L722.76,772.362L722.996,772.406L723.235,772.45L723.476,772.493L723.719,772.536L723.965,772.58L724.214,772.622L724.465,772.665L724.718,772.707L724.975,772.749L725.233,772.791L725.495,772.833L725.759,772.874L726.025,772.915L726.295,772.955L726.566,772.996L726.841,773.035L727.118,773.075L727.398,773.114L727.68,773.153L727.966,773.192L728.253,773.23L728.544,773.268L728.837,773.306L729.133,773.343L729.432,773.38L729.734,773.416L730.038,773.452L730.345,773.488L730.655,773.523L730.968,773.558L731.284,773.592L731.602,773.626L731.924,773.66L732.248,773.693L732.575,773.726L732.905,773.758L733.237,773.79L733.573,773.821L733.912,773.852L734.253,773.883L734.598,773.913L734.945,773.942L735.295,773.971L735.649,774L736.005,774.028L736.365,774.055L736.727,774.082L737.092,774.109L737.461,774.135L737.832,774.16L738.207,774.185L738.584,774.21L738.965,774.233L739.349,774.257L739.736,774.279L740.126,774.301L740.519,774.323L740.915,774.344L741.315,774.364L741.717,774.384L742.123,774.403L742.532,774.422L742.944,774.44L743.36,774.457L743.778,774.474L744.2,774.49L744.625,774.506L745.054,774.521L745.485,774.535L745.92,774.549L746.358,774.562L746.8,774.574L747.245,774.585L747.693,774.596L748.144,774.607L748.599,774.616L749.057,774.625L749.519,774.633L749.984,774.64L750.452,774.647L750.924,774.653L751.399,774.659L751.878,774.663L752.36,774.667L752.846,774.67L753.332,774.672L753.814,774.674L754.293,774.675L754.769,774.675L755.241,774.675L755.71,774.673L756.175,774.672L756.637,774.669L757.096,774.666L757.551,774.662L758.003,774.657L758.451,774.652L758.897,774.646L759.339,774.64L759.777,774.632L760.213,774.625L760.645,774.616L761.074,774.607L761.499,774.597L761.922,774.587L762.341,774.576L762.757,774.565L763.17,774.552L763.579,774.54L763.986,774.526L764.389,774.513L764.789,774.498L765.186,774.483L765.579,774.467L765.97,774.451L766.358,774.435L766.742,774.417L767.123,774.4L767.502,774.381L767.877,774.362L768.249,774.343L768.618,774.323L768.984,774.303L769.347,774.282L769.707,774.26L770.064,774.238L770.418,774.216L770.77,774.193L771.118,774.17L771.463,774.146L771.805,774.122L772.145,774.097L772.481,774.072L772.815,774.046L773.145,774.02L773.473,773.993L773.798,773.966L774.12,773.939L774.439,773.911L774.756,773.883L775.07,773.854L775.38,773.825L775.688,773.796L775.994,773.766L776.296,773.736L776.596,773.705L776.893,773.674L777.187,773.643L777.478,773.611L777.767,773.579L778.053,773.546L778.337,773.514L778.618,773.481L778.896,773.447L779.171,773.413L779.444,773.379L779.714,773.345L779.981,773.31L780.246,773.275L780.509,773.24L780.768,773.204L781.026,773.168L781.28,773.132L781.532,773.096L781.782,773.059L782.029,773.022L782.273,772.985L782.515,772.948L782.755,772.91L782.992,772.872L783.226,772.834L783.458,772.795L783.688,772.757L783.915,772.718L784.14,772.679L784.363,772.64L784.583,772.6L784.8,772.561L785.015,772.521L785.228,772.481L785.439,772.441L785.647,772.4L785.853,772.36L786.056,772.319L786.258,772.278L786.457,772.237L786.653,772.196L786.848,772.155L787.04,772.114L787.23,772.072L787.417,772.031L787.603,771.989L787.786,771.947L787.967,771.906L788.146,771.864L788.323,771.822L788.497,771.78L788.669,771.737L788.84,771.695L789.008,771.653L789.174,771.611L789.338,771.568L789.499,771.526L789.659,771.483L789.817,771.441L789.972,771.398L790.126,771.356L790.277,771.313L790.427,771.271L790.574,771.228L790.72,771.186L790.863,771.144L791.004,771.101L791.144,771.059L791.282,771.016L791.417,770.974L791.551,770.932L791.683,770.89L791.812,770.847L791.94,770.805L792.066,770.763L792.191,770.722L792.313,770.68L792.433,770.638L792.552,770.596L792.669,770.555L792.784,770.513L792.897,770.472L793.008,770.431L793.118,770.39L793.226,770.349L793.332,770.309L793.436,770.268L793.539,770.228L793.64,770.187L793.739,770.147L793.835,770.108L794.027,770.028L794.21,769.95L794.387,769.872L794.557,769.796L794.721,769.72L794.879,769.646L795.031,769.572L795.176,769.5L795.316,769.429L795.45,769.359L795.578,769.29L795.7,769.223L795.817,769.157L795.928,769.093L796.034,769.03L796.135,768.968L796.23,768.909L796.321,768.851L796.406,768.794L796.487,768.74L796.563,768.687L796.634,768.637L796.701,768.588L796.763,768.541L796.821,768.496L796.875,768.453L796.925,768.413L796.971,768.375L797.012,768.339L797.017,768.335L800.593,742.884L785.681,755.51L785.455,755.676L785.208,755.809L784.946,755.906L784.673,755.966L784.395,755.986L784.117,755.967L783.843,755.91L783.581,755.815L783.333,755.683L783.106,755.519L782.903,755.324L782.728,755.102L782.585,754.858L782.477,754.597L782.404,754.322L782.37,754.04L780.743,723.739L765.234,750.637L765.075,750.872L764.887,751.083L764.672,751.265L764.434,751.415L764.178,751.531L763.908,751.609L763.631,751.648L763.351,751.648L763.074,751.609L762.804,751.531L762.548,751.416L762.31,751.266L762.095,751.084L761.906,750.874L761.748,750.639L761.623,750.384L761.534,750.114L753.236,717.658L744.513,749.437Z" style="fill:rgb(128,128,128);"/>
            </g>
            <g transform="matrix(0.626305,0.00360525,-0.00369609,0.615212,-134.95,-121.232)">
                <circle cx="950" cy="604.614" r="5.386" style="fill:rgb(128,128,128);"/>
                <path d="M950.258,594.313L950.516,594.323L950.773,594.34L951.029,594.362L951.283,594.391L951.537,594.427L951.787,594.468L952.037,594.516L952.284,594.57L952.529,594.63L952.772,594.696L953.012,594.767L953.25,594.845L953.486,594.928L953.719,595.017L953.949,595.111L954.177,595.21L954.401,595.315L954.622,595.425L954.841,595.54L955.056,595.661L955.267,595.786L955.477,595.916L955.682,596.052L955.883,596.191L956.081,596.336L956.276,596.485L956.467,596.639L956.654,596.797L956.837,596.96L957.017,597.127L957.193,597.299L957.364,597.474L957.531,597.653L957.694,597.837L957.854,598.026L958.008,598.218L958.158,598.413L958.304,598.613L958.445,598.816L958.581,599.023L958.714,599.236L958.84,599.45L958.962,599.667L959.079,599.889L959.191,600.114L959.297,600.342L959.398,600.573L959.494,600.807L959.585,601.045L959.669,601.285L959.749,601.528L959.822,601.775L959.889,602.023L959.95,602.273L960.005,602.526L960.054,602.781L960.097,603.038L960.133,603.297L960.163,603.559L960.186,603.821L960.203,604.083L960.213,604.349L960.217,604.616L960.213,604.881L960.203,605.145L960.186,605.409L960.163,605.672L960.133,605.933L960.097,606.191L960.054,606.448L960.005,606.704L959.95,606.957L959.889,607.208L959.822,607.456L959.749,607.701L959.67,607.944L959.585,608.184L959.494,608.422L959.399,608.656L959.298,608.887L959.191,609.116L959.079,609.341L958.962,609.562L958.84,609.78L958.714,609.994L958.582,610.205L958.446,610.412L958.305,610.615L958.159,610.815L958.008,611.011L957.854,611.203L957.695,611.391L957.532,611.575L957.365,611.754L957.193,611.93L957.017,612.102L956.838,612.268L956.655,612.431L956.468,612.589L956.277,612.743L956.082,612.892L955.885,613.037L955.683,613.176L955.477,613.312L955.269,613.442L955.058,613.567L954.842,613.687L954.623,613.803L954.403,613.913L954.179,614.017L953.951,614.117L953.721,614.211L953.488,614.3L953.252,614.383L953.015,614.46L952.774,614.532L952.531,614.597L952.286,614.657L952.039,614.711L951.79,614.759L951.539,614.801L951.286,614.836L951.031,614.865L950.776,614.888L950.519,614.904L950.26,614.914L950.001,614.917L949.742,614.914L949.484,614.904L949.227,614.888L948.97,614.865L948.717,614.836L948.464,614.801L948.212,614.759L947.963,614.711L947.717,614.657L947.471,614.597L947.228,614.532L946.988,614.46L946.75,614.383L946.514,614.3L946.28,614.211L946.051,614.117L945.824,614.017L945.599,613.913L945.378,613.803L945.159,613.687L944.944,613.567L944.733,613.442L944.523,613.311L944.318,613.176L944.117,613.036L943.919,612.892L943.724,612.742L943.533,612.588L943.347,612.431L943.162,612.267L942.983,612.1L942.808,611.929L942.636,611.753L942.469,611.574L942.306,611.39L942.146,611.201L941.992,611.01L941.842,610.814L941.696,610.615L941.555,610.41L941.419,610.204L941.287,609.993L941.16,609.778L941.038,609.56L940.921,609.338L940.809,609.114L940.703,608.886L940.602,608.655L940.506,608.42L940.415,608.183L940.331,607.943L940.251,607.699L940.178,607.453L940.111,607.205L940.05,606.954L939.995,606.702L939.946,606.446L939.903,606.188L939.867,605.929L939.837,605.669L939.814,605.408L939.797,605.144L939.787,604.878L939.783,604.612L939.787,604.346L939.797,604.082L939.814,603.818L939.837,603.555L939.867,603.295L939.903,603.037L939.946,602.779L939.995,602.523L940.05,602.27L940.111,602.02L940.178,601.772L940.251,601.527L940.33,601.284L940.415,601.043L940.506,600.805L940.601,600.571L940.702,600.34L940.809,600.112L940.921,599.887L941.038,599.666L941.16,599.448L941.286,599.234L941.418,599.022L941.555,598.815L941.695,598.612L941.842,598.412L941.992,598.216L942.146,598.025L942.305,597.837L942.468,597.653L942.635,597.473L942.807,597.297L942.983,597.126L943.162,596.959L943.345,596.796L943.532,596.638L943.723,596.484L943.918,596.335L944.115,596.191L944.316,596.051L944.522,595.916L944.731,595.785L944.942,595.661L945.158,595.54L945.376,595.425L945.597,595.315L945.822,595.21L946.049,595.11L946.279,595.016L946.512,594.928L946.748,594.845L946.985,594.767L947.226,594.696L947.469,594.63L947.714,594.57L947.961,594.516L948.211,594.468L948.461,594.427L948.714,594.391L948.968,594.362L949.224,594.34L949.481,594.323L949.74,594.313L949.999,594.31L950.258,594.313ZM949.982,604.145L949.964,604.146L949.948,604.147L949.931,604.148L949.915,604.15L949.899,604.152L949.883,604.155L949.869,604.158L949.855,604.161L949.84,604.164L949.827,604.168L949.813,604.172L949.799,604.177L949.786,604.181L949.772,604.186L949.759,604.192L949.747,604.197L949.734,604.203L949.721,604.209L949.709,604.216L949.697,604.222L949.685,604.23L949.673,604.237L949.662,604.244L949.65,604.253L949.639,604.261L949.627,604.27L949.617,604.278L949.607,604.287L949.597,604.296L949.586,604.305L949.577,604.314L949.568,604.324L949.559,604.333L949.551,604.342L949.543,604.352L949.535,604.362L949.527,604.372L949.521,604.381L949.514,604.391L949.507,604.4L949.502,604.409L949.496,604.419L949.491,604.429L949.486,604.438L949.481,604.447L949.477,604.456L949.473,604.465L949.47,604.474L949.466,604.482L949.464,604.49L949.461,604.499L949.458,604.508L949.456,604.517L949.454,604.525L949.452,604.534L949.45,604.542L949.449,604.551L949.447,604.561L949.446,604.571L949.445,604.581L949.445,604.591L949.444,604.604L949.444,604.616L949.444,604.627L949.444,604.637L949.445,604.648L949.446,604.659L949.447,604.669L949.45,604.687L949.452,604.695L949.454,604.705L949.458,604.722L949.463,604.738L949.466,604.747L949.469,604.756L949.473,604.764L949.477,604.773L949.481,604.783L949.486,604.792L949.49,604.8L949.496,604.81L949.501,604.819L949.507,604.828L949.514,604.838L949.52,604.847L949.527,604.857L949.534,604.867L949.543,604.877L949.55,604.886L949.558,604.895L949.567,604.905L949.576,604.914L949.586,604.924L949.596,604.933L949.605,604.941L949.616,604.95L949.627,604.959L949.637,604.967L949.649,604.975L949.66,604.983L949.672,604.991L949.683,604.998L949.695,605.005L949.708,605.012L949.719,605.018L949.732,605.024L949.745,605.03L949.758,605.036L949.771,605.042L949.784,605.046L949.797,605.051L949.81,605.055L949.824,605.059L949.838,605.063L949.852,605.067L949.867,605.07L949.882,605.073L949.896,605.075L949.912,605.077L949.929,605.079L949.945,605.081L949.962,605.082L949.98,605.082L949.999,605.083L950.018,605.082L950.035,605.082L950.052,605.081L950.07,605.079L950.085,605.077L950.101,605.075L950.116,605.073L950.131,605.07L950.146,605.067L950.16,605.063L950.173,605.059L950.187,605.055L950.201,605.051L950.214,605.046L950.228,605.041L950.241,605.036L950.253,605.031L950.266,605.024L950.279,605.018L950.291,605.012L950.303,605.005L950.315,604.998L950.328,604.99L950.338,604.983L950.35,604.975L950.361,604.966L950.372,604.958L950.383,604.949L950.393,604.941L950.403,604.932L950.414,604.922L950.423,604.913L950.432,604.904L950.441,604.894L950.449,604.885L950.458,604.875L950.465,604.865L950.473,604.856L950.479,604.847L950.486,604.837L950.493,604.827L950.498,604.818L950.504,604.808L950.509,604.799L950.514,604.789L950.519,604.78L950.523,604.772L950.527,604.763L950.53,604.754L950.534,604.745L950.536,604.737L950.539,604.729L950.542,604.72L950.544,604.71L950.546,604.702L950.548,604.693L950.55,604.685L950.551,604.676L950.553,604.666L950.554,604.656L950.555,604.647L950.555,604.636L950.556,604.624L950.556,604.612L950.556,604.601L950.556,604.59L950.555,604.578L950.554,604.567L950.553,604.559L950.552,604.55L950.55,604.541L950.548,604.532L950.546,604.523L950.544,604.514L950.542,604.505L950.539,604.497L950.537,604.489L950.534,604.48L950.531,604.472L950.527,604.463L950.523,604.454L950.519,604.445L950.514,604.436L950.51,604.427L950.504,604.417L950.498,604.408L950.493,604.4L950.487,604.39L950.48,604.38L950.473,604.37L950.465,604.36L950.458,604.351L950.451,604.342L950.442,604.333L950.433,604.323L950.423,604.313L950.414,604.304L950.404,604.295L950.394,604.286L950.384,604.277L950.373,604.269L950.363,604.261L950.352,604.253L950.34,604.244L950.328,604.237L950.317,604.23L950.305,604.222L950.292,604.215L950.28,604.209L950.268,604.203L950.255,604.197L950.242,604.191L950.229,604.186L950.216,604.181L950.203,604.176L950.19,604.172L950.176,604.168L950.162,604.164L950.147,604.161L950.133,604.158L950.119,604.155L950.103,604.152L950.088,604.15L950.072,604.148L950.055,604.147L950.038,604.146L950.02,604.145L950.001,604.145L949.982,604.145Z" style="fill:rgb(128,128,128);"/>
            </g>
            <g transform="matrix(-0.626305,-0.00360525,-0.00369609,0.615212,1149.45,-113.008)">
                <circle cx="950" cy="604.614" r="5.386" style="fill:rgb(128,128,128);"/>
                <path d="M949.742,594.313L949.484,594.323L949.227,594.34L948.97,594.362L948.717,594.391L948.464,594.427L948.212,594.468L947.963,594.516L947.716,594.57L947.471,594.63L947.228,594.696L946.988,594.767L946.75,594.845L946.514,594.928L946.281,595.016L946.051,595.111L945.823,595.21L945.599,595.315L945.378,595.425L945.159,595.54L944.944,595.661L944.733,595.786L944.523,595.916L944.318,596.052L944.117,596.191L943.919,596.336L943.724,596.485L943.533,596.639L943.346,596.797L943.163,596.959L942.983,597.127L942.807,597.299L942.636,597.474L942.47,597.653L942.306,597.837L942.146,598.026L941.991,598.218L941.842,598.413L941.696,598.613L941.555,598.816L941.419,599.024L941.286,599.236L941.16,599.45L941.038,599.667L940.921,599.888L940.809,600.114L940.703,600.342L940.602,600.573L940.505,600.808L940.415,601.045L940.331,601.285L940.251,601.528L940.178,601.774L940.111,602.023L940.05,602.273L939.995,602.526L939.946,602.781L939.903,603.038L939.867,603.297L939.837,603.558L939.814,603.821L939.797,604.084L939.787,604.349L939.783,604.616L939.787,604.881L939.797,605.145L939.814,605.409L939.837,605.672L939.867,605.933L939.903,606.191L939.946,606.448L939.995,606.704L940.05,606.957L940.111,607.207L940.178,607.455L940.252,607.702L940.33,607.944L940.415,608.184L940.506,608.422L940.601,608.656L940.702,608.887L940.809,609.115L940.921,609.34L941.038,609.563L941.16,609.78L941.286,609.993L941.418,610.205L941.555,610.412L941.695,610.615L941.841,610.815L941.992,611.011L942.147,611.204L942.305,611.391L942.468,611.575L942.635,611.754L942.807,611.93L942.983,612.102L943.162,612.268L943.345,612.431L943.532,612.589L943.723,612.743L943.918,612.892L944.115,613.037L944.316,613.176L944.523,613.312L944.731,613.442L944.942,613.567L945.158,613.687L945.376,613.803L945.597,613.913L945.822,614.017L946.049,614.117L946.279,614.211L946.512,614.3L946.748,614.383L946.985,614.46L947.226,614.532L947.469,614.597L947.714,614.657L947.961,614.711L948.211,614.759L948.461,614.801L948.714,614.836L948.968,614.865L949.225,614.888L949.481,614.904L949.74,614.914L949.999,614.917L950.258,614.914L950.516,614.904L950.773,614.888L951.029,614.865L951.283,614.836L951.537,614.801L951.787,614.759L952.037,614.711L952.284,614.657L952.529,614.597L952.772,614.532L953.012,614.46L953.25,614.383L953.486,614.3L953.72,614.211L953.949,614.117L954.176,614.017L954.401,613.913L954.622,613.803L954.841,613.687L955.056,613.567L955.267,613.442L955.477,613.311L955.682,613.176L955.883,613.037L956.081,612.892L956.276,612.742L956.467,612.589L956.654,612.431L956.838,612.267L957.017,612.1L957.192,611.929L957.364,611.754L957.531,611.574L957.695,611.39L957.854,611.201L958.008,611.01L958.158,610.814L958.304,610.614L958.445,610.41L958.581,610.204L958.713,609.993L958.84,609.778L958.962,609.56L959.079,609.338L959.191,609.113L959.297,608.886L959.398,608.655L959.494,608.42L959.585,608.183L959.669,607.943L959.749,607.699L959.822,607.453L959.889,607.205L959.95,606.954L960.005,606.702L960.054,606.446L960.097,606.188L960.133,605.929L960.163,605.669L960.186,605.408L960.203,605.144L960.213,604.877L960.216,604.612L960.213,604.347L960.203,604.082L960.186,603.818L960.163,603.555L960.133,603.295L960.097,603.037L960.054,602.779L960.005,602.523L959.95,602.27L959.889,602.02L959.822,601.772L959.749,601.527L959.67,601.284L959.585,601.043L959.494,600.805L959.399,600.571L959.298,600.34L959.191,600.111L959.079,599.887L958.962,599.666L958.84,599.448L958.714,599.234L958.582,599.022L958.446,598.815L958.305,598.612L958.158,598.411L958.008,598.216L957.854,598.025L957.695,597.837L957.532,597.652L957.365,597.473L957.193,597.298L957.017,597.126L956.838,596.959L956.655,596.796L956.468,596.638L956.277,596.484L956.082,596.335L955.885,596.191L955.683,596.051L955.478,595.916L955.269,595.786L955.058,595.661L954.842,595.54L954.623,595.424L954.403,595.315L954.179,595.21L953.951,595.11L953.721,595.016L953.488,594.928L953.252,594.845L953.015,594.767L952.774,594.696L952.531,594.63L952.286,594.57L952.039,594.516L951.79,594.468L951.539,594.427L951.286,594.391L951.031,594.362L950.776,594.34L950.519,594.323L950.26,594.313L950.001,594.31L949.742,594.313ZM950.018,604.145L950.035,604.146L950.052,604.147L950.07,604.148L950.085,604.15L950.101,604.152L950.116,604.155L950.131,604.158L950.146,604.161L950.16,604.164L950.173,604.168L950.187,604.172L950.202,604.177L950.214,604.181L950.228,604.186L950.241,604.192L950.253,604.197L950.266,604.203L950.279,604.21L950.291,604.216L950.303,604.222L950.315,604.23L950.327,604.237L950.338,604.245L950.35,604.253L950.361,604.261L950.373,604.27L950.383,604.278L950.393,604.287L950.403,604.296L950.414,604.305L950.423,604.314L950.432,604.324L950.441,604.333L950.449,604.342L950.457,604.352L950.465,604.362L950.473,604.372L950.479,604.381L950.486,604.391L950.493,604.4L950.498,604.409L950.504,604.419L950.509,604.428L950.514,604.438L950.519,604.447L950.523,604.456L950.527,604.465L950.53,604.474L950.536,604.49L950.539,604.499L950.542,604.508L950.544,604.517L950.548,604.534L950.551,604.551L950.553,604.561L950.554,604.571L950.555,604.581L950.555,604.591L950.556,604.602L950.556,604.616L950.556,604.628L950.556,604.637L950.555,604.648L950.554,604.659L950.553,604.669L950.551,604.679L950.55,604.687L950.548,604.695L950.546,604.705L950.544,604.714L950.542,604.722L950.539,604.73L950.537,604.738L950.534,604.747L950.531,604.756L950.527,604.764L950.523,604.773L950.519,604.783L950.514,604.792L950.509,604.801L950.504,604.81L950.499,604.819L950.493,604.828L950.486,604.838L950.48,604.848L950.473,604.857L950.466,604.866L950.458,604.877L950.45,604.886L950.442,604.895L950.433,604.905L950.424,604.914L950.414,604.924L950.404,604.933L950.395,604.941L950.384,604.95L950.373,604.959L950.363,604.967L950.352,604.975L950.34,604.983L950.328,604.991L950.317,604.998L950.305,605.005L950.292,605.012L950.281,605.018L950.268,605.024L950.255,605.03L950.242,605.036L950.229,605.042L950.216,605.046L950.203,605.051L950.19,605.055L950.176,605.059L950.162,605.063L950.148,605.067L950.133,605.07L950.119,605.073L950.103,605.075L950.088,605.077L950.072,605.079L950.055,605.081L950.038,605.082L950.02,605.082L950.001,605.083L949.982,605.082L949.965,605.082L949.947,605.081L949.931,605.079L949.915,605.077L949.899,605.075L949.883,605.073L949.869,605.07L949.855,605.067L949.84,605.063L949.827,605.059L949.813,605.055L949.799,605.051L949.786,605.046L949.772,605.041L949.759,605.036L949.747,605.03L949.734,605.024L949.721,605.018L949.709,605.012L949.697,605.005L949.685,604.997L949.672,604.99L949.662,604.983L949.65,604.975L949.639,604.966L949.628,604.958L949.617,604.949L949.607,604.941L949.597,604.932L949.586,604.922L949.577,604.913L949.568,604.904L949.559,604.895L949.551,604.885L949.542,604.875L949.535,604.865L949.528,604.856L949.521,604.847L949.514,604.837L949.507,604.827L949.502,604.818L949.496,604.808L949.49,604.798L949.486,604.79L949.482,604.781L949.477,604.772L949.473,604.763L949.47,604.753L949.466,604.745L949.464,604.737L949.46,604.727L949.458,604.72L949.456,604.712L949.454,604.702L949.452,604.693L949.45,604.685L949.449,604.676L949.447,604.666L949.446,604.656L949.445,604.647L949.445,604.636L949.444,604.624L949.444,604.612L949.444,604.601L949.445,604.589L949.445,604.578L949.446,604.568L949.447,604.559L949.448,604.55L949.45,604.541L949.452,604.532L949.454,604.523L949.456,604.514L949.458,604.505L949.461,604.497L949.463,604.489L949.466,604.48L949.47,604.471L949.473,604.463L949.477,604.454L949.481,604.445L949.485,604.437L949.49,604.427L949.496,604.418L949.502,604.408L949.507,604.399L949.513,604.39L949.52,604.38L949.527,604.371L949.535,604.36L949.543,604.35L949.549,604.342L949.558,604.333L949.567,604.323L949.577,604.313L949.586,604.304L949.595,604.295L949.606,604.286L949.616,604.277L949.626,604.269L949.637,604.261L949.649,604.252L949.66,604.244L949.672,604.237L949.683,604.23L949.695,604.222L949.708,604.215L949.72,604.209L949.732,604.203L949.745,604.197L949.758,604.191L949.771,604.186L949.784,604.181L949.797,604.176L949.81,604.172L949.824,604.168L949.838,604.164L949.852,604.161L949.867,604.158L949.882,604.155L949.896,604.152L949.912,604.15L949.929,604.148L949.945,604.147L949.962,604.146L949.98,604.145L949.999,604.145L950.018,604.145Z" style="fill:rgb(128,128,128);"/>
            </g>
            <g transform="matrix(0.626305,0.00360525,-0.00369609,0.615212,-87.4264,-132.077)">
                <circle cx="950" cy="604.614" r="5.386" style="fill:rgb(128,128,128);"/>
                <path d="M950.258,594.313L950.516,594.323L950.773,594.34L951.03,594.362L951.284,594.391L951.536,594.427L951.788,594.468L952.037,594.516L952.283,594.57L952.529,594.63L952.772,594.696L953.012,594.767L953.251,594.845L953.486,594.928L953.719,595.017L953.949,595.11L954.176,595.21L954.401,595.315L954.622,595.425L954.84,595.54L955.056,595.661L955.267,595.786L955.476,595.916L955.682,596.052L955.883,596.191L956.081,596.336L956.277,596.486L956.467,596.639L956.654,596.797L956.837,596.96L957.017,597.127L957.192,597.298L957.364,597.474L957.531,597.654L957.694,597.837L957.853,598.025L958.008,598.218L958.158,598.413L958.304,598.613L958.445,598.817L958.582,599.024L958.713,599.235L958.84,599.449L958.962,599.667L959.079,599.889L959.191,600.114L959.297,600.342L959.398,600.573L959.494,600.807L959.585,601.046L959.67,601.286L959.748,601.528L959.821,601.773L959.889,602.022L959.95,602.273L960.005,602.527L960.054,602.781L960.097,603.038L960.133,603.298L960.163,603.558L960.186,603.821L960.203,604.084L960.213,604.349L960.217,604.615L960.213,604.88L960.203,605.146L960.186,605.409L960.163,605.671L960.133,605.933L960.097,606.192L960.054,606.448L960.006,606.703L959.95,606.957L959.889,607.208L959.822,607.455L959.749,607.701L959.669,607.945L959.585,608.185L959.495,608.421L959.399,608.655L959.298,608.887L959.191,609.116L959.079,609.341L958.962,609.562L958.841,609.779L958.713,609.994L958.582,610.205L958.445,610.412L958.304,610.616L958.159,610.815L958.009,611.011L957.854,611.204L957.695,611.391L957.533,611.574L957.365,611.754L957.193,611.93L957.018,612.101L956.838,612.268L956.655,612.431L956.468,612.589L956.277,612.743L956.082,612.892L955.885,613.037L955.683,613.176L955.478,613.312L955.269,613.442L955.057,613.567L954.842,613.687L954.624,613.802L954.403,613.913L954.178,614.018L953.951,614.117L953.721,614.211L953.488,614.3L953.252,614.383L953.015,614.46L952.774,614.532L952.531,614.597L952.286,614.657L952.039,614.711L951.789,614.759L951.539,614.801L951.286,614.836L951.032,614.865L950.776,614.888L950.519,614.904L950.26,614.914L950.001,614.917L949.742,614.914L949.484,614.904L949.227,614.888L948.971,614.865L948.716,614.836L948.464,614.801L948.213,614.759L947.963,614.711L947.716,614.657L947.471,614.597L947.228,614.532L946.988,614.46L946.75,614.383L946.514,614.3L946.281,614.211L946.051,614.117L945.824,614.017L945.599,613.913L945.378,613.802L945.16,613.687L944.944,613.567L944.732,613.441L944.524,613.311L944.319,613.176L944.117,613.036L943.918,612.891L943.724,612.742L943.533,612.589L943.346,612.43L943.163,612.268L942.983,612.101L942.808,611.929L942.636,611.753L942.469,611.574L942.306,611.39L942.147,611.202L941.992,611.01L941.842,610.814L941.696,610.615L941.555,610.41L941.418,610.203L941.287,609.993L941.16,609.779L941.038,609.56L940.921,609.338L940.809,609.113L940.703,608.886L940.601,608.654L940.506,608.42L940.415,608.183L940.33,607.941L940.252,607.699L940.179,607.454L940.111,607.206L940.05,606.954L939.995,606.701L939.946,606.445L939.903,606.189L939.867,605.93L939.837,605.669L939.814,605.407L939.797,605.143L939.787,604.878L939.783,604.613L939.787,604.347L939.797,604.081L939.814,603.817L939.837,603.557L939.867,603.296L939.903,603.036L939.946,602.778L939.995,602.523L940.05,602.272L940.111,602.021L940.178,601.772L940.252,601.525L940.331,601.282L940.415,601.043L940.506,600.805L940.601,600.571L940.702,600.341L940.809,600.112L940.921,599.887L941.038,599.666L941.159,599.448L941.287,599.233L941.418,599.022L941.555,598.815L941.696,598.611L941.841,598.412L941.992,598.216L942.146,598.024L942.305,597.837L942.468,597.652L942.635,597.473L942.806,597.298L942.982,597.126L943.162,596.959L943.345,596.796L943.532,596.638L943.723,596.485L943.918,596.335L944.115,596.191L944.317,596.051L944.522,595.916L944.73,595.786L944.943,595.66L945.158,595.54L945.376,595.425L945.597,595.315L945.822,595.21L946.049,595.11L946.279,595.016L946.512,594.928L946.748,594.845L946.986,594.767L947.226,594.696L947.469,594.63L947.714,594.57L947.961,594.516L948.21,594.468L948.461,594.427L948.714,594.391L948.969,594.362L949.224,594.34L949.481,594.323L949.74,594.313L949.999,594.31L950.258,594.313ZM949.982,604.145L949.965,604.146L949.948,604.147L949.93,604.148L949.915,604.15L949.899,604.152L949.884,604.155L949.869,604.158L949.854,604.161L949.84,604.164L949.826,604.168L949.812,604.172L949.799,604.177L949.786,604.181L949.772,604.186L949.759,604.192L949.746,604.197L949.734,604.203L949.722,604.209L949.709,604.216L949.697,604.223L949.686,604.229L949.673,604.237L949.661,604.245L949.65,604.253L949.639,604.261L949.628,604.269L949.617,604.278L949.606,604.287L949.597,604.296L949.587,604.305L949.578,604.313L949.568,604.324L949.559,604.333L949.551,604.342L949.542,604.353L949.535,604.362L949.527,604.372L949.52,604.382L949.514,604.391L949.507,604.4L949.501,604.41L949.496,604.419L949.491,604.428L949.486,604.438L949.482,604.446L949.478,604.455L949.473,604.465L949.47,604.474L949.466,604.482L949.463,604.491L949.46,604.5L949.458,604.508L949.456,604.516L949.454,604.524L949.452,604.534L949.45,604.543L949.448,604.552L949.447,604.56L949.446,604.57L949.445,604.582L949.444,604.592L949.444,604.602L949.444,604.615L949.444,604.627L949.445,604.638L949.445,604.649L949.446,604.659L949.447,604.668L949.448,604.678L949.45,604.688L949.454,604.705L949.458,604.721L949.461,604.73L949.466,604.747L949.469,604.756L949.473,604.765L949.477,604.773L949.481,604.783L949.486,604.792L949.49,604.8L949.495,604.809L949.501,604.819L949.507,604.829L949.513,604.838L949.52,604.847L949.527,604.857L949.534,604.867L949.542,604.876L949.55,604.886L949.558,604.895L949.567,604.905L949.576,604.914L949.586,604.923L949.596,604.932L949.606,604.941L949.616,604.95L949.627,604.959L949.638,604.967L949.649,604.975L949.66,604.983L949.671,604.99L949.684,604.998L949.695,605.005L949.707,605.012L949.72,605.018L949.732,605.024L949.745,605.03L949.758,605.036L949.771,605.041L949.784,605.046L949.797,605.051L949.81,605.055L949.824,605.06L949.838,605.063L949.852,605.067L949.867,605.07L949.881,605.073L949.896,605.075L949.912,605.077L949.929,605.079L949.945,605.081L949.962,605.082L949.98,605.082L949.999,605.083L950.018,605.082L950.035,605.082L950.052,605.081L950.069,605.079L950.085,605.077L950.101,605.075L950.117,605.073L950.131,605.07L950.145,605.067L950.16,605.063L950.174,605.059L950.187,605.055L950.202,605.051L950.214,605.046L950.227,605.041L950.241,605.036L950.254,605.03L950.266,605.024L950.278,605.018L950.291,605.012L950.303,605.005L950.315,604.998L950.327,604.99L950.338,604.983L950.35,604.975L950.361,604.966L950.373,604.958L950.383,604.949L950.393,604.941L950.403,604.932L950.413,604.923L950.423,604.913L950.432,604.904L950.44,604.895L950.45,604.884L950.458,604.875L950.465,604.866L950.472,604.856L950.48,604.846L950.486,604.837L950.493,604.827L950.499,604.817L950.504,604.808L950.509,604.799L950.514,604.789L950.519,604.78L950.523,604.772L950.526,604.764L950.53,604.755L950.534,604.744L950.537,604.736L950.539,604.729L950.542,604.72L950.544,604.71L950.546,604.702L950.548,604.695L950.55,604.685L950.552,604.675L950.553,604.666L950.554,604.657L950.555,604.647L950.556,604.635L950.556,604.625L950.556,604.613L950.556,604.601L950.555,604.589L950.555,604.578L950.554,604.568L950.553,604.558L950.552,604.55L950.55,604.54L950.548,604.531L950.546,604.523L950.545,604.515L950.542,604.506L950.539,604.497L950.536,604.488L950.533,604.479L950.531,604.472L950.527,604.463L950.523,604.454L950.519,604.445L950.514,604.436L950.51,604.427L950.505,604.418L950.499,604.409L950.493,604.398L950.487,604.389L950.48,604.38L950.473,604.37L950.466,604.361L950.458,604.352L950.45,604.342L950.441,604.332L950.433,604.323L950.424,604.313L950.414,604.304L950.404,604.295L950.394,604.286L950.384,604.277L950.373,604.268L950.363,604.261L950.352,604.253L950.34,604.244L950.329,604.237L950.317,604.23L950.304,604.222L950.293,604.216L950.28,604.209L950.268,604.203L950.255,604.197L950.243,604.191L950.229,604.186L950.216,604.181L950.203,604.176L950.19,604.172L950.176,604.168L950.162,604.164L950.148,604.161L950.133,604.158L950.118,604.155L950.104,604.152L950.088,604.15L950.071,604.148L950.055,604.147L950.038,604.146L950.02,604.145L950.001,604.145L949.982,604.145Z" style="fill:rgb(128,128,128);"/>
            </g>
            <g transform="matrix(0.626305,0.00360525,-0.00369609,0.615212,-169.589,-89.4835)">
                <circle cx="950" cy="604.614" r="5.386" style="fill:rgb(128,128,128);"/>
                <path d="M950.258,594.313L950.517,594.323L950.773,594.34L951.029,594.362L951.284,594.391L951.536,594.427L951.787,594.468L952.036,594.516L952.284,594.57L952.529,594.63L952.772,594.696L953.012,594.767L953.25,594.845L953.486,594.928L953.719,595.016L953.949,595.111L954.176,595.21L954.401,595.315L954.622,595.425L954.84,595.54L955.056,595.661L955.268,595.786L955.476,595.916L955.681,596.051L955.884,596.192L956.082,596.336L956.275,596.485L956.467,596.639L956.654,596.797L956.837,596.959L957.016,597.126L957.192,597.298L957.364,597.474L957.531,597.654L957.695,597.838L957.853,598.025L958.008,598.217L958.158,598.413L958.304,598.613L958.445,598.817L958.582,599.024L958.713,599.234L958.84,599.449L958.962,599.667L959.079,599.889L959.191,600.114L959.297,600.342L959.399,600.574L959.494,600.807L959.585,601.045L959.67,601.286L959.748,601.528L959.821,601.773L959.889,602.022L959.95,602.273L960.005,602.527L960.054,602.782L960.097,603.038L960.133,603.297L960.163,603.558L960.186,603.821L960.203,604.084L960.213,604.349L960.217,604.615L960.213,604.88L960.203,605.146L960.186,605.41L960.163,605.671L960.133,605.931L960.097,606.192L960.054,606.449L960.005,606.704L959.95,606.956L959.889,607.207L959.822,607.455L959.749,607.701L959.669,607.945L959.585,608.185L959.495,608.421L959.399,608.656L959.297,608.888L959.191,609.115L959.079,609.34L958.962,609.562L958.84,609.78L958.713,609.995L958.582,610.205L958.445,610.412L958.304,610.616L958.159,610.815L958.008,611.012L957.854,611.203L957.695,611.391L957.532,611.574L957.365,611.754L957.193,611.93L957.018,612.101L956.838,612.268L956.655,612.431L956.468,612.589L956.278,612.743L956.082,612.892L955.884,613.037L955.683,613.177L955.478,613.311L955.269,613.442L955.057,613.567L954.843,613.687L954.624,613.802L954.402,613.913L954.178,614.018L953.951,614.117L953.721,614.211L953.488,614.3L953.253,614.383L953.014,614.46L952.773,614.532L952.531,614.597L952.286,614.657L952.039,614.711L951.79,614.759L951.539,614.801L951.286,614.836L951.032,614.865L950.776,614.888L950.519,614.904L950.26,614.914L950.001,614.917L949.742,614.914L949.483,614.904L949.227,614.888L948.971,614.865L948.716,614.836L948.464,614.801L948.213,614.759L947.964,614.711L947.716,614.657L947.471,614.597L947.228,614.532L946.988,614.46L946.749,614.383L946.514,614.3L946.281,614.211L946.051,614.117L945.824,614.017L945.598,613.912L945.378,613.803L945.16,613.688L944.944,613.567L944.732,613.441L944.524,613.311L944.319,613.176L944.117,613.036L943.918,612.891L943.724,612.742L943.534,612.589L943.346,612.43L943.162,612.267L942.984,612.101L942.808,611.929L942.636,611.753L942.469,611.573L942.305,611.39L942.147,611.202L941.992,611.01L941.842,610.814L941.696,610.615L941.555,610.41L941.418,610.203L941.287,609.993L941.16,609.779L941.038,609.56L940.921,609.338L940.809,609.113L940.703,608.885L940.601,608.654L940.506,608.42L940.415,608.183L940.33,607.942L940.252,607.699L940.179,607.454L940.111,607.206L940.05,606.954L939.995,606.701L939.946,606.445L939.903,606.189L939.867,605.931L939.837,605.669L939.814,605.407L939.797,605.143L939.787,604.878L939.783,604.613L939.787,604.347L939.797,604.081L939.814,603.818L939.837,603.556L939.867,603.295L939.903,603.036L939.946,602.779L939.995,602.524L940.05,602.271L940.111,602.02L940.178,601.772L940.251,601.527L940.331,601.282L940.415,601.042L940.505,600.806L940.601,600.571L940.703,600.34L940.809,600.112L940.921,599.887L941.038,599.666L941.16,599.448L941.287,599.233L941.418,599.022L941.555,598.815L941.696,598.612L941.841,598.412L941.991,598.217L942.146,598.024L942.305,597.836L942.468,597.653L942.635,597.473L942.807,597.297L942.982,597.126L943.162,596.959L943.345,596.796L943.532,596.638L943.723,596.484L943.918,596.335L944.116,596.191L944.317,596.051L944.522,595.916L944.731,595.786L944.943,595.66L945.157,595.54L945.376,595.425L945.598,595.314L945.822,595.21L946.049,595.11L946.279,595.016L946.512,594.928L946.747,594.845L946.986,594.767L947.227,594.696L947.469,594.63L947.714,594.57L947.961,594.516L948.21,594.468L948.461,594.427L948.714,594.391L948.968,594.362L949.224,594.34L949.481,594.323L949.74,594.313L949.999,594.31L950.258,594.313ZM949.982,604.145L949.965,604.146L949.948,604.147L949.931,604.148L949.915,604.15L949.899,604.152L949.884,604.155L949.869,604.158L949.855,604.161L949.84,604.164L949.826,604.168L949.812,604.172L949.799,604.176L949.786,604.181L949.772,604.186L949.76,604.192L949.746,604.197L949.733,604.203L949.722,604.209L949.71,604.216L949.696,604.223L949.685,604.23L949.674,604.237L949.661,604.245L949.65,604.253L949.639,604.261L949.628,604.269L949.617,604.278L949.607,604.287L949.597,604.296L949.587,604.305L949.577,604.314L949.568,604.324L949.56,604.333L949.55,604.343L949.542,604.353L949.535,604.362L949.528,604.371L949.52,604.381L949.514,604.391L949.507,604.4L949.501,604.41L949.496,604.419L949.491,604.428L949.486,604.438L949.482,604.446L949.477,604.456L949.473,604.465L949.47,604.473L949.466,604.483L949.463,604.491L949.461,604.499L949.458,604.508L949.456,604.517L949.454,604.525L949.452,604.533L949.45,604.542L949.448,604.552L949.447,604.561L949.446,604.57L949.445,604.581L949.444,604.592L949.444,604.602L949.444,604.615L949.444,604.627L949.445,604.638L949.445,604.649L949.446,604.659L949.447,604.668L949.448,604.678L949.45,604.688L949.454,604.705L949.458,604.721L949.461,604.73L949.466,604.747L949.469,604.756L949.473,604.765L949.477,604.774L949.481,604.783L949.486,604.791L949.49,604.8L949.495,604.809L949.501,604.819L949.507,604.829L949.513,604.838L949.52,604.847L949.527,604.857L949.534,604.866L949.542,604.876L949.55,604.886L949.559,604.896L949.567,604.905L949.576,604.914L949.585,604.923L949.596,604.933L949.606,604.942L949.616,604.95L949.627,604.959L949.638,604.967L949.649,604.975L949.66,604.983L949.671,604.99L949.684,604.998L949.696,605.005L949.707,605.011L949.72,605.018L949.733,605.025L949.745,605.03L949.757,605.036L949.77,605.041L949.783,605.046L949.797,605.051L949.81,605.055L949.824,605.059L949.839,605.063L949.852,605.067L949.866,605.07L949.881,605.073L949.897,605.075L949.913,605.077L949.928,605.079L949.945,605.081L949.963,605.082L949.98,605.082L949.998,605.083L950.018,605.082L950.035,605.082L950.052,605.081L950.069,605.079L950.085,605.077L950.101,605.075L950.116,605.073L950.131,605.07L950.145,605.067L950.16,605.063L950.174,605.059L950.188,605.055L950.201,605.051L950.214,605.046L950.228,605.041L950.24,605.036L950.254,605.03L950.267,605.024L950.278,605.018L950.291,605.012L950.304,605.004L950.315,604.998L950.326,604.991L950.339,604.982L950.35,604.975L950.361,604.966L950.372,604.959L950.383,604.95L950.394,604.94L950.403,604.932L950.413,604.923L950.423,604.913L950.432,604.904L950.44,604.895L950.449,604.885L950.458,604.875L950.466,604.865L950.472,604.856L950.48,604.846L950.486,604.837L950.493,604.827L950.499,604.817L950.504,604.808L950.509,604.799L950.514,604.79L950.518,604.781L950.523,604.771L950.527,604.763L950.53,604.755L950.534,604.744L950.537,604.736L950.539,604.729L950.542,604.72L950.544,604.712L950.546,604.703L950.548,604.693L950.55,604.684L950.552,604.675L950.553,604.667L950.554,604.657L950.555,604.645L950.556,604.635L950.556,604.625L950.556,604.613L950.556,604.601L950.555,604.589L950.555,604.578L950.554,604.568L950.553,604.559L950.552,604.55L950.55,604.539L950.548,604.531L950.546,604.523L950.545,604.515L950.542,604.506L950.539,604.497L950.536,604.488L950.534,604.48L950.531,604.472L950.527,604.462L950.523,604.454L950.519,604.445L950.514,604.436L950.51,604.427L950.505,604.418L950.499,604.409L950.493,604.398L950.487,604.389L950.48,604.38L950.473,604.37L950.466,604.361L950.458,604.352L950.45,604.341L950.441,604.332L950.433,604.322L950.424,604.313L950.415,604.305L950.405,604.295L950.394,604.286L950.384,604.277L950.374,604.269L950.362,604.26L950.351,604.252L950.341,604.245L950.329,604.237L950.316,604.229L950.304,604.222L950.293,604.216L950.281,604.209L950.267,604.203L950.255,604.197L950.242,604.191L950.23,604.186L950.217,604.181L950.203,604.177L950.19,604.172L950.176,604.168L950.161,604.164L950.148,604.161L950.134,604.158L950.119,604.155L950.103,604.152L950.087,604.15L950.072,604.148L950.055,604.147L950.037,604.146L950.02,604.145L950.002,604.145L949.982,604.145Z" style="fill:rgb(128,128,128);"/>
            </g>
            <g transform="matrix(-0.626305,-0.00360525,-0.00369609,0.615212,1183.71,-80.8624)">
                <circle cx="950" cy="604.614" r="5.386" style="fill:rgb(128,128,128);"/>
                <path d="M949.742,594.313L949.483,594.323L949.227,594.34L948.971,594.362L948.716,594.391L948.464,594.427L948.213,594.468L947.963,594.516L947.716,594.57L947.471,594.63L947.228,594.696L946.988,594.767L946.749,594.845L946.514,594.928L946.281,595.016L946.052,595.11L945.824,595.21L945.599,595.315L945.377,595.425L945.16,595.54L944.944,595.661L944.732,595.786L944.524,595.916L944.319,596.051L944.117,596.191L943.919,596.336L943.724,596.485L943.533,596.639L943.346,596.797L943.162,596.96L942.983,597.127L942.808,597.298L942.636,597.474L942.469,597.654L942.306,597.838L942.147,598.025L941.992,598.217L941.842,598.413L941.696,598.613L941.555,598.817L941.418,599.024L941.287,599.234L941.16,599.449L941.038,599.667L940.921,599.889L940.809,600.114L940.703,600.342L940.602,600.573L940.506,600.807L940.415,601.046L940.33,601.286L940.252,601.528L940.179,601.773L940.111,602.022L940.05,602.273L939.995,602.527L939.946,602.781L939.903,603.038L939.867,603.298L939.837,603.558L939.814,603.821L939.797,604.084L939.787,604.349L939.783,604.615L939.787,604.88L939.797,605.146L939.814,605.409L939.837,605.671L939.867,605.933L939.903,606.192L939.946,606.448L939.995,606.703L940.05,606.957L940.111,607.208L940.178,607.455L940.251,607.701L940.331,607.945L940.415,608.185L940.505,608.421L940.601,608.655L940.703,608.888L940.809,609.116L940.921,609.34L941.038,609.562L941.16,609.78L941.287,609.995L941.418,610.205L941.555,610.412L941.696,610.616L941.841,610.815L941.991,611.011L942.146,611.203L942.305,611.392L942.468,611.575L942.635,611.754L942.807,611.93L942.982,612.101L943.162,612.268L943.345,612.431L943.532,612.589L943.723,612.743L943.918,612.892L944.116,613.037L944.317,613.177L944.522,613.311L944.731,613.442L944.943,613.567L945.157,613.687L945.376,613.803L945.598,613.913L945.822,614.018L946.049,614.117L946.279,614.211L946.512,614.3L946.747,614.383L946.985,614.46L947.226,614.532L947.47,614.598L947.714,614.657L947.961,614.711L948.21,614.759L948.461,614.801L948.714,614.836L948.969,614.865L949.224,614.888L949.481,614.904L949.74,614.914L949.998,614.917L950.258,614.914L950.517,614.904L950.773,614.888L951.029,614.865L951.284,614.836L951.537,614.801L951.788,614.759L952.036,614.711L952.284,614.657L952.529,614.597L952.772,614.532L953.013,614.46L953.25,614.383L953.486,614.3L953.719,614.211L953.949,614.117L954.176,614.017L954.401,613.912L954.622,613.802L954.84,613.688L955.056,613.567L955.268,613.441L955.476,613.311L955.681,613.176L955.884,613.036L956.082,612.891L956.276,612.743L956.467,612.588L956.654,612.43L956.837,612.268L957.016,612.101L957.192,611.929L957.364,611.753L957.531,611.573L957.695,611.39L957.853,611.202L958.008,611.01L958.158,610.814L958.304,610.615L958.445,610.411L958.582,610.203L958.713,609.993L958.84,609.779L958.963,609.559L959.079,609.338L959.19,609.115L959.297,608.886L959.399,608.654L959.494,608.42L959.585,608.183L959.67,607.942L959.748,607.699L959.822,607.453L959.889,607.205L959.95,606.955L960.005,606.702L960.054,606.445L960.097,606.189L960.133,605.93L960.163,605.669L960.186,605.407L960.203,605.143L960.213,604.878L960.217,604.613L960.213,604.346L960.203,604.081L960.186,603.818L960.163,603.556L960.133,603.296L960.097,603.036L960.054,602.778L960.005,602.523L959.95,602.272L959.889,602.021L959.822,601.772L959.748,601.525L959.669,601.282L959.585,601.043L959.494,600.805L959.399,600.571L959.298,600.341L959.191,600.113L959.079,599.887L958.962,599.666L958.84,599.448L958.713,599.233L958.582,599.022L958.445,598.815L958.304,598.612L958.159,598.412L958.008,598.216L957.854,598.024L957.695,597.837L957.532,597.653L957.365,597.473L957.194,597.298L957.017,597.126L956.838,596.959L956.655,596.796L956.468,596.638L956.278,596.485L956.082,596.335L955.884,596.191L955.683,596.051L955.478,595.916L955.269,595.786L955.057,595.66L954.842,595.54L954.624,595.425L954.403,595.315L954.178,595.21L953.951,595.11L953.721,595.016L953.488,594.928L953.253,594.845L953.014,594.767L952.773,594.696L952.531,594.63L952.286,594.57L952.039,594.516L951.79,594.468L951.539,594.427L951.286,594.391L951.032,594.362L950.775,594.34L950.519,594.323L950.261,594.313L950.001,594.31L949.742,594.313ZM950.017,604.145L950.035,604.146L950.053,604.147L950.069,604.148L950.085,604.15L950.101,604.152L950.116,604.155L950.131,604.158L950.145,604.161L950.16,604.164L950.174,604.168L950.188,604.172L950.201,604.176L950.214,604.181L950.228,604.186L950.24,604.192L950.254,604.197L950.266,604.203L950.278,604.209L950.291,604.216L950.304,604.223L950.315,604.23L950.326,604.237L950.339,604.245L950.35,604.253L950.361,604.261L950.372,604.269L950.383,604.278L950.393,604.287L950.403,604.296L950.414,604.305L950.422,604.314L950.432,604.324L950.441,604.333L950.449,604.342L950.458,604.353L950.466,604.362L950.472,604.371L950.48,604.381L950.486,604.391L950.493,604.4L950.499,604.41L950.504,604.419L950.509,604.428L950.514,604.438L950.518,604.446L950.522,604.455L950.527,604.465L950.53,604.474L950.534,604.482L950.537,604.491L950.542,604.508L950.546,604.524L950.548,604.534L950.55,604.543L950.553,604.56L950.554,604.57L950.555,604.581L950.555,604.592L950.556,604.604L950.556,604.615L950.556,604.627L950.555,604.638L950.555,604.649L950.554,604.659L950.553,604.668L950.552,604.678L950.55,604.688L950.548,604.695L950.547,604.704L950.544,604.714L950.542,604.722L950.539,604.73L950.537,604.739L950.534,604.747L950.53,604.756L950.527,604.765L950.523,604.773L950.519,604.781L950.514,604.791L950.509,604.801L950.505,604.809L950.499,604.819L950.493,604.829L950.487,604.838L950.48,604.847L950.473,604.857L950.466,604.866L950.458,604.876L950.45,604.886L950.441,604.896L950.433,604.905L950.424,604.914L950.415,604.923L950.405,604.932L950.394,604.942L950.384,604.95L950.374,604.958L950.362,604.967L950.351,604.976L950.34,604.983L950.329,604.991L950.316,604.998L950.305,605.005L950.293,605.011L950.28,605.018L950.268,605.025L950.255,605.03L950.242,605.036L950.23,605.041L950.217,605.046L950.203,605.051L950.189,605.056L950.176,605.06L950.162,605.063L950.148,605.067L950.134,605.07L950.118,605.073L950.103,605.075L950.088,605.077L950.072,605.079L950.055,605.081L950.037,605.082L950.02,605.082L950.002,605.083L949.982,605.082L949.965,605.082L949.948,605.081L949.93,605.079L949.915,605.077L949.9,605.075L949.884,605.073L949.869,605.07L949.854,605.067L949.84,605.063L949.826,605.059L949.813,605.055L949.799,605.051L949.786,605.046L949.773,605.041L949.76,605.036L949.746,605.03L949.733,605.024L949.721,605.018L949.709,605.012L949.697,605.005L949.685,604.998L949.674,604.991L949.661,604.982L949.65,604.975L949.639,604.966L949.628,604.958L949.617,604.95L949.607,604.94L949.597,604.932L949.587,604.923L949.577,604.913L949.568,604.904L949.559,604.894L949.55,604.884L949.543,604.876L949.535,604.866L949.528,604.856L949.52,604.846L949.514,604.837L949.507,604.827L949.501,604.817L949.496,604.808L949.491,604.799L949.486,604.79L949.481,604.78L949.477,604.771L949.474,604.764L949.47,604.755L949.466,604.744L949.463,604.736L949.461,604.729L949.458,604.72L949.456,604.71L949.454,604.702L949.452,604.694L949.45,604.685L949.448,604.675L949.447,604.666L949.446,604.657L949.445,604.647L949.444,604.635L949.444,604.625L949.444,604.613L949.444,604.601L949.445,604.589L949.445,604.578L949.446,604.568L949.447,604.558L949.448,604.55L949.45,604.541L949.452,604.531L949.454,604.523L949.455,604.515L949.458,604.506L949.461,604.497L949.464,604.488L949.467,604.479L949.469,604.472L949.473,604.463L949.477,604.454L949.481,604.445L949.486,604.436L949.491,604.427L949.495,604.418L949.501,604.409L949.507,604.398L949.514,604.389L949.52,604.38L949.527,604.37L949.534,604.361L949.542,604.352L949.55,604.341L949.559,604.332L949.567,604.322L949.576,604.313L949.586,604.304L949.596,604.295L949.605,604.286L949.616,604.277L949.627,604.268L949.637,604.261L949.649,604.252L949.66,604.244L949.671,604.237L949.684,604.229L949.695,604.222L949.707,604.216L949.72,604.209L949.732,604.203L949.745,604.197L949.757,604.192L949.77,604.186L949.784,604.181L949.797,604.176L949.81,604.172L949.824,604.168L949.838,604.164L949.852,604.161L949.867,604.158L949.881,604.155L949.897,604.152L949.913,604.15L949.928,604.148L949.945,604.147L949.963,604.146L949.98,604.145L949.998,604.145L950.017,604.145Z" style="fill:rgb(128,128,128);"/>
            </g>
        </g>
    </g>
</svg>
